<svg version="1.1" xmlns="http://www.w3.org/2000/svg" xmlns:xlink="http://www.w3.org/1999/xlink" width="482.75" height="336.03304" viewBox="0,0,482.75,336.03304"><defs><linearGradient x1="240" y1="313.48198" x2="240" y2="10.48198" gradientUnits="userSpaceOnUse" id="color-1"><stop offset="0" stop-color="#1a0a00"/><stop offset="1" stop-color="#1a0a00" stop-opacity="0"/></linearGradient><linearGradient x1="240" y1="43.51502" x2="240" y2="346.51502" gradientUnits="userSpaceOnUse" id="color-2"><stop offset="0" stop-color="#1a0a00"/><stop offset="1" stop-color="#1a0a00" stop-opacity="0"/></linearGradient><linearGradient x1="-0.75" y1="38" x2="480.25" y2="38" gradientUnits="userSpaceOnUse" id="color-3"><stop offset="0" stop-color="#429fff"/><stop offset="1" stop-color="#c23bff"/></linearGradient><linearGradient x1="6.5" y1="189.99099" x2="99.5" y2="189.99099" gradientUnits="userSpaceOnUse" id="color-4"><stop offset="0" stop-color="#040620"/><stop offset="1" stop-color="#040620" stop-opacity="0"/></linearGradient><linearGradient x1="46.90188" y1="50.58812" x2="46.90188" y2="87.40375" gradientUnits="userSpaceOnUse" id="color-5"><stop offset="0" stop-color="#00091a"/><stop offset="1" stop-color="#00091a" stop-opacity="0"/></linearGradient><linearGradient x1="30.75431" y1="52.43749" x2="30.75431" y2="63.16897" gradientUnits="userSpaceOnUse" id="color-6"><stop offset="0" stop-color="#429fff"/><stop offset="1" stop-color="#753bff"/></linearGradient><linearGradient x1="15.98366" y1="52.10368" x2="15.98366" y2="62.65552" gradientUnits="userSpaceOnUse" id="color-7"><stop offset="0" stop-color="#429fff"/><stop offset="1" stop-color="#753bff"/></linearGradient><linearGradient x1="46.28571" y1="52.62351" x2="46.28571" y2="63.19493" gradientUnits="userSpaceOnUse" id="color-8"><stop offset="0" stop-color="#429fff"/><stop offset="1" stop-color="#753bff"/></linearGradient><linearGradient x1="62.78572" y1="57.98066" x2="62.78572" y2="62.98066" gradientUnits="userSpaceOnUse" id="color-9"><stop offset="0" stop-color="#429fff"/><stop offset="1" stop-color="#753bff"/></linearGradient><linearGradient x1="62.39717" y1="52.46303" x2="62.39717" y2="57.77182" gradientUnits="userSpaceOnUse" id="color-10"><stop offset="0" stop-color="#429fff"/><stop offset="1" stop-color="#753bff"/></linearGradient><linearGradient x1="80.21428" y1="59.69494" x2="80.21428" y2="63.98066" gradientUnits="userSpaceOnUse" id="color-11"><stop offset="0" stop-color="#429fff"/><stop offset="1" stop-color="#753bff"/></linearGradient><linearGradient x1="78.93232" y1="52.45542" x2="78.93232" y2="60.55472" gradientUnits="userSpaceOnUse" id="color-12"><stop offset="0" stop-color="#429fff"/><stop offset="1" stop-color="#753bff"/></linearGradient><linearGradient x1="47.00001" y1="72.40923" x2="47.00001" y2="80.8378" gradientUnits="userSpaceOnUse" id="color-13"><stop offset="0" stop-color="#b423ec"/><stop offset="1" stop-color="#ff1673"/></linearGradient><linearGradient x1="8.74413" y1="90.89865" x2="8.74413" y2="100.05681" gradientUnits="userSpaceOnUse" id="color-14"><stop offset="0" stop-color="#429fff"/><stop offset="1" stop-color="#753bff"/></linearGradient><linearGradient x1="13.72006" y1="103.0997" x2="13.72006" y2="111.86161" gradientUnits="userSpaceOnUse" id="color-15"><stop offset="0" stop-color="#429fff"/><stop offset="1" stop-color="#753bff"/></linearGradient><linearGradient x1="18.55339" y1="103.15526" x2="18.55339" y2="111.91716" gradientUnits="userSpaceOnUse" id="color-16"><stop offset="0" stop-color="#429fff"/><stop offset="1" stop-color="#753bff"/></linearGradient><linearGradient x1="13.94229" y1="114.87749" x2="13.94229" y2="123.63939" gradientUnits="userSpaceOnUse" id="color-17"><stop offset="0" stop-color="#429fff"/><stop offset="1" stop-color="#753bff"/></linearGradient><linearGradient x1="18.5534" y1="114.93304" x2="18.5534" y2="123.69494" gradientUnits="userSpaceOnUse" id="color-18"><stop offset="0" stop-color="#429fff"/><stop offset="1" stop-color="#753bff"/></linearGradient><linearGradient x1="8.88889" y1="127.59576" x2="8.88889" y2="136.81798" gradientUnits="userSpaceOnUse" id="color-19"><stop offset="0" stop-color="#429fff"/><stop offset="1" stop-color="#753bff"/></linearGradient></defs><g transform="translate(1,-10.48198)"><g data-paper-data="{&quot;isPaintingLayer&quot;:true}" fill-rule="nonzero" stroke-linecap="butt" stroke-linejoin="miter" stroke-miterlimit="10" stroke-dasharray="" stroke-dashoffset="0" style="mix-blend-mode: normal"><path d="M481,10.48198v303h-482v-303z" data-paper-data="{&quot;index&quot;:null}" fill="url(#color-1)" stroke="none" stroke-width="0"/><path d="M-1,346.51502v-303h482v303z" fill="url(#color-2)" stroke="none" stroke-width="0"/><path d="M-1,331.5v-303h482v303z" fill="#444b52" stroke="none" stroke-width="0"/><path d="M93.25,68.48198v-21h388.5v21z" fill="#2c2a31" stroke="none" stroke-width="0"/><path d="M93.25,331.98198v-264.5h12.5v264.5z" fill="#333a42" stroke="none" stroke-width="0"/><path d="M176.75,68.68198c0,0 0,-9.68525 0,-13.08536c0,-2.44836 2.18008,-5.41463 4.6,-5.41463c7.55562,0 47.34481,0 60.31111,0c2.57224,0 4.08889,2.5937 4.08889,4.51219c0,3.37786 0,13.9878 0,13.9878z" fill="#333a42" stroke="none" stroke-width="0"/><path d="M-0.75,47.5v-19h481v19z" fill="url(#color-3)" stroke="none" stroke-width="0"/><text transform="translate(24.75,40.84367) scale(0.21019,0.21019)" font-size="40" xml:space="preserve" fill="#ffffff" fill-rule="nonzero" stroke="none" stroke-width="1" stroke-linecap="butt" stroke-linejoin="miter" stroke-miterlimit="10" stroke-dasharray="" stroke-dashoffset="0" font-family="Malgun Gothic" font-weight="normal" text-anchor="start" style="mix-blend-mode: normal"><tspan x="0" dy="0">CrispIndy Devkit - New Project</tspan></text><path d="M416.75,39.41667v-1.25h8.5v1.25z" fill="#ffffff" stroke="none" stroke-width="0"/><path d="M440.63889,43.05555v-7.5h7.5v7.5z" fill="none" stroke="#ffffff" stroke-width="1"/><path d="M448.02778,35.61111l-5.22222,-0.13888v-2.25001h7.5v7.5h-2.36111z" fill="none" stroke="#ffffff" stroke-width="1"/><path d="M466.26223,34.64683l1.14762,-1.07764l7.32792,7.80378l-1.14762,1.07764z" fill="#ffffff" stroke="none" stroke-width="0"/><path d="M467.64102,42.5191l-1.14884,-1.14272l7.77054,-7.81213l1.14884,1.14273z" data-paper-data="{&quot;index&quot;:null}" fill="#ffffff" stroke="none" stroke-width="0"/><path d="M6.5,331.99099v-284h93v284z" fill="url(#color-4)" stroke="none" stroke-width="0"/><path d="M0.5,331.99099v-284h93v284z" fill="#333a42" stroke="none" stroke-width="0"/><path d="M8.5,37.97773c0,-3.17329 2.57246,-5.74575 5.74575,-5.74575c0.32561,0 0.6449,0.02709 0.95573,0.07913c-0.63279,0.68321 -1.01957,1.59755 -1.01957,2.60222c0,2.11553 1.71497,3.8305 3.8305,3.8305c0.72252,0 1.39831,-0.20004 1.97502,-0.54775c-0.11478,3.07211 -2.64149,5.5274 -5.74167,5.5274c-3.17329,0 -5.74575,-2.57246 -5.74575,-5.74575z" fill="#ffffff" stroke="none" stroke-width="0"/><path d="M0.40188,87.40375v-36.81563h93v36.81564z" fill="url(#color-5)" stroke="none" stroke-width="0"/><path d="M-0.64668,84.53804v-36.81563h94.31715v36.81563z" fill="#2c2a31" stroke="none" stroke-width="0"/><path d="M26.92857,62.54839c0,-2.46015 0,-8.20237 0,-9.5c0,-0.51015 0.29633,-0.79796 0.77186,-0.47373c1.68041,1.14574 5.59859,3.81721 6.58604,4.49048c0.44113,0.30077 0.37185,0.98661 -0.11871,1.34339c-0.95766,0.69647 -4.37024,3.17836 -6.14662,4.47027c-0.65881,0.47913 -1.09257,0.36214 -1.09257,-0.3304z" fill="url(#color-6)" stroke="none" stroke-width="0"/><path d="M11.91227,61.77712c-0.01669,-1.05546 -0.08808,-5.56978 -0.08808,-5.56978c0,0 -0.76312,-0.00003 -1.12774,-0.00005c-0.34335,-0.00001 -0.73163,-0.19571 -0.31401,-0.50018c1.21856,-0.88841 3.7077,-2.70316 4.50746,-3.28623c0.48279,-0.35198 1.53443,-0.43165 1.96629,-0.13429c0.79516,0.54751 3.48278,2.39811 4.70837,3.242c0.37914,0.26106 0.15922,0.44604 -0.13105,0.45884c-0.40252,0.01775 -1.44102,0.06355 -1.44102,0.06355c0,0 -0.02675,4.49507 -0.03335,5.60462c-0.00279,0.46866 -0.40301,0.99992 -1.01271,0.99992c-0.1973,0 -0.53786,0 -0.85639,0c-0.40182,0 -0.77084,-0.45311 -0.77353,-0.99874c-0.00288,-0.58376 -0.00628,-1.27343 -0.00802,-1.62743c-0.00217,-0.44005 -0.48885,-1.09091 -0.98741,-1.09783c-0.32771,-0.00455 -0.66194,-0.00919 -0.86963,-0.01206c-0.38579,-0.00535 -1.00501,0.7479 -1.00501,1.23606c0,0.3703 0,1.06264 0,1.625c0,0.48605 -0.4428,0.875 -0.875,0.875c-0.31291,0 -0.62026,0 -0.75,0c-0.4407,0 -0.90254,-0.45926 -0.90916,-0.87841z" fill="url(#color-7)" stroke="none" stroke-width="0"/><path d="M41,61.69601c0,-1.27733 0,-5.53253 0,-7.73134c0,-0.81016 0.78844,-1.34115 1.49894,-1.34115c0.14753,0 1.85255,0.05519 1.85255,0.05519c0,0 0.01959,1.78959 0.0271,2.47615c0.00535,0.48886 0.70466,1.26489 1.18155,1.27141c0.29122,0.00399 0.79295,0.01084 1.29912,0.01776c0.80423,0.011 1.65526,-0.76647 1.67798,-1.26961c0.03193,-0.70703 0.11521,-2.55091 0.11521,-2.55091l2.91897,2.76119c0,0 0,5.2231 0,6.15351c0,0.77177 -0.60063,1.65672 -1.49894,1.65672c-2.23868,0 -6.32614,0 -7.57355,0c-0.7105,0 -1.49894,-0.78843 -1.49894,-1.49893zM43.10197,61.66953l6.14433,0.06754c0,0 -0.10511,-1.61288 -0.1459,-2.23901c-0.02948,-0.45242 -0.62617,-1.17531 -1.3662,-1.18383c-1.2296,-0.01415 -2.98385,-0.03433 -3.61154,-0.04155c-0.44689,-0.00514 -0.98538,1.10121 -0.99404,1.66439c-0.00881,0.57267 -0.02665,1.73246 -0.02665,1.73246z" fill="url(#color-8)" stroke="none" stroke-width="0"/><path d="M58.07143,61.8378c0,-0.90635 0,-3.85714 0,-3.85714h1.71429l0.14285,3.28571l5.63874,-0.02871l-0.06731,-3.257h2c0,0 0,3.11111 0,4c0,0.44445 -0.44958,1 -1.14285,1c-2.00093,0 -6.03187,0 -7.14286,0c-0.55557,0 -1.14285,-0.6495 -1.14285,-1.14286z" fill="url(#color-9)" stroke="none" stroke-width="0"/><path d="M65.91872,53.22109c-0.89636,1.2325 -2.61835,3.60023 -3.10158,4.26468c-0.24754,0.34036 -0.72339,0.38843 -0.93207,0.08236c-0.46713,-0.68512 -2.32067,-3.40365 -3.11561,-4.56956c-0.22496,-0.32993 -0.02528,-0.53554 0.32869,-0.53554c0.90033,0 4.88442,0 6.59134,0c0.4805,0 0.56168,0.30096 0.22924,0.75805z" data-paper-data="{&quot;index&quot;:null}" fill="url(#color-10)" stroke="none" stroke-width="0"/><path d="M78.07143,61.6378c0,0 1.3396,-0.1001 1.68734,-0.42853c0.33768,-0.31891 0.36979,-1.51433 0.36979,-1.51433c0,0 0.37344,1.18212 0.77497,1.56307c0.32502,0.30835 1.4536,0.55122 1.4536,0.55122c0,0 -1.31303,0.12452 -1.71857,0.50978c-0.34731,0.32995 -0.56714,1.66165 -0.56714,1.66165c0,0 -0.17778,-1.43926 -0.516,-1.83548c-0.32814,-0.38439 -1.484,-0.50738 -1.484,-0.50738z" fill="url(#color-11)" stroke="none" stroke-width="0"/><path d="M80.36319,52.5676l-1.23873,2.65442l1.07134,0.95672l2.64485,-1.13367c0,0 0.599,1.52932 -0.4704,2.5362c-1.01757,0.95808 -3.20634,0.09821 -3.20634,0.09821c0,0 -2.71895,3.18022 -3.04778,2.85139c-0.47783,-0.47783 -0.92623,-0.92623 -1.23872,-1.23873c-0.29069,-0.29069 2.58622,-2.99997 2.58622,-2.99997c0,0 -0.54791,-2.20324 0.0322,-2.89921c1.15542,-1.38621 2.86738,-0.82534 2.86738,-0.82534z" fill="url(#color-12)" stroke="none" stroke-width="0"/><path d="M43.89257,79.74936c-0.28458,-1.36047 -1.53542,-7.34013 -1.53542,-7.34013h9.28571c0,0 -0.95185,5.68794 -1.19046,7.1138c-0.10258,0.61299 -0.77176,1.31477 -1.51297,1.31477c-1.18418,0 -2.85197,0 -3.52622,0c-0.56784,0 -1.41104,-0.56455 -1.52063,-1.08844z" fill="url(#color-13)" stroke="none" stroke-width="0"/><path d="M51.86822,71.40891c-0.26271,0.70055 -2.46338,0.52308 -4.91533,-0.39639c-2.45195,-0.91948 -4.22668,-2.23279 -3.96397,-2.93334c0.26271,-0.70055 2.46337,-0.52308 4.91532,0.3964c2.45195,0.91948 4.22668,2.23278 3.96397,2.93334z" fill="#b423ec" stroke="none" stroke-width="0"/><text transform="translate(110,83.88677) scale(0.25121,0.25121)" font-size="40" xml:space="preserve" fill="#ffffff" fill-rule="nonzero" stroke="none" stroke-width="1" stroke-linecap="butt" stroke-linejoin="miter" stroke-miterlimit="10" stroke-dasharray="" stroke-dashoffset="0" font-family="Malgun Gothic" font-weight="normal" text-anchor="start" style="mix-blend-mode: normal"><tspan x="0" dy="0">keep.note.add("Hello World");</tspan></text><path d="M105.75,68.58198c0,0 0,-9.42348 0,-12.7317c0,-2.38219 2.18008,-5.2683 4.6,-5.2683c7.55563,0 47.34481,0 60.31111,0c2.57224,0 4.08889,2.5236 4.08889,4.39025c0,3.28657 0,13.60976 0,13.60976z" fill="#444b52" stroke="none" stroke-width="0"/><text transform="translate(124.4,62.31007) scale(0.21452,0.21452)" font-size="40" xml:space="preserve" fill="#ffffff" fill-rule="nonzero" stroke="none" stroke-width="1" stroke-linecap="butt" stroke-linejoin="miter" stroke-miterlimit="10" stroke-dasharray="" stroke-dashoffset="0" font-family="Malgun Gothic" font-weight="normal" text-anchor="start" style="mix-blend-mode: normal"><tspan x="0" dy="0">test.cris</tspan></text><text transform="translate(194.8,62.51007) scale(0.21452,0.21452)" font-size="40" xml:space="preserve" fill="#a2b1ca" fill-rule="nonzero" stroke="none" stroke-width="1" stroke-linecap="butt" stroke-linejoin="miter" stroke-miterlimit="10" stroke-dasharray="" stroke-dashoffset="0" font-family="Malgun Gothic" font-weight="normal" text-anchor="start" style="mix-blend-mode: normal"><tspan x="0" dy="0">other.cris</tspan></text><path d="M260.24115,64.60959l-1.62037,-0.00615l0.04181,-11.01857l1.62038,0.00615z" data-paper-data="{&quot;index&quot;:null}" fill="#a2b1ca" stroke="none" stroke-width="0"/><path d="M264.96423,58.47463l-0.00615,1.62037l-11.01857,-0.04181l0.00616,-1.62038z" data-paper-data="{&quot;index&quot;:null}" fill="#a2b1ca" stroke="none" stroke-width="0"/><text transform="translate(15.25,97.88398) scale(0.19069,0.19069)" font-size="40" xml:space="preserve" fill="#ffffff" fill-rule="nonzero" stroke="none" stroke-width="1" stroke-linecap="butt" stroke-linejoin="miter" stroke-miterlimit="10" stroke-dasharray="" stroke-dashoffset="0" font-family="Malgun Gothic" font-weight="normal" text-anchor="start" style="mix-blend-mode: normal"><tspan x="0" dy="0">New Project</tspan></text><path d="M4.16667,95.47773c0,-2.52896 2.05013,-4.57908 4.57908,-4.57908c0.2595,0 0.51395,0.02159 0.76167,0.06306c-0.5043,0.54449 -0.81255,1.27317 -0.81255,2.07384c0,1.68597 1.36675,3.05272 3.05272,3.05272c0.57581,0 1.11439,-0.15942 1.57399,-0.43653c-0.09147,2.44832 -2.10514,4.40507 -4.57583,4.40507c-2.52896,0 -4.57908,-2.05013 -4.57908,-4.57908z" fill="url(#color-14)" stroke="none" stroke-width="0"/><path d="M65.20513,94.67357c-0.64309,0.88425 -1.87854,2.58298 -2.22523,3.05969c-0.1776,0.24419 -0.519,0.27868 -0.66872,0.05909c-0.33514,-0.49154 -1.66496,-2.44195 -2.23529,-3.27843c-0.16139,-0.23671 -0.01813,-0.38422 0.23581,-0.38422c0.64594,0 3.50432,0 4.72895,0c0.34474,0 0.40298,0.21592 0.16447,0.54387z" data-paper-data="{&quot;index&quot;:null}" fill="#ffffff" stroke="none" stroke-width="0"/><path d="M12.70015,103.09971c0.68114,0 2.8987,0 2.8987,0v1.59307l-2.46926,0.13275l0.02158,5.24005l2.44768,-0.06256v1.85859c0,0 -2.33805,0 -3.00606,0c-0.33401,0 -0.75152,-0.41779 -0.75152,-1.06205c0,-1.85945 0,-5.60537 0,-6.63781c0,-0.51629 0.48811,-1.06205 0.85888,-1.06205z" fill="url(#color-15)" stroke="none" stroke-width="0"/><path d="M20.20996,104.21731c0,1.03244 0,4.77836 0,6.63781c0,0.64426 -0.36813,1.06204 -0.66263,1.06204c-0.589,0 -2.6505,0 -2.6505,0v-1.85859l2.15817,0.06256l0.01902,-5.24004l-2.1772,-0.13276v-1.59307c0,0 1.95527,0 2.55584,0c0.32691,0 0.75729,0.54576 0.75729,1.06204z" data-paper-data="{&quot;index&quot;:null}" fill="url(#color-16)" stroke="none" stroke-width="0"/><text transform="translate(22.80556,110.10621) scale(0.19069,0.19069)" font-size="40" xml:space="preserve" fill="#ffffff" fill-rule="nonzero" stroke="none" stroke-width="1" stroke-linecap="butt" stroke-linejoin="miter" stroke-miterlimit="10" stroke-dasharray="" stroke-dashoffset="0" font-family="Malgun Gothic" font-weight="normal" text-anchor="start" style="mix-blend-mode: normal"><tspan x="0" dy="0">test</tspan></text><path d="M12.92237,114.87749c0.68114,0 2.8987,0 2.8987,0v1.59307l-2.46926,0.13276l0.02158,5.24004l2.44768,-0.06256v1.85859c0,0 -2.33804,0 -3.00606,0c-0.334,0 -0.75151,-0.41779 -0.75151,-1.06204c0,-1.85945 0,-5.60537 0,-6.63781c0,-0.51628 0.48811,-1.06204 0.85887,-1.06204z" fill="url(#color-17)" stroke="none" stroke-width="0"/><path d="M20.20996,115.99509c0,1.03244 0,4.77836 0,6.63781c0,0.64426 -0.36813,1.06204 -0.66263,1.06204c-0.589,0 -2.6505,0 -2.6505,0v-1.85858l2.15818,0.06255l0.01902,-5.24004l-2.1772,-0.13276v-1.59307c0,0 1.95527,0 2.55585,0c0.32691,0 0.75729,0.54576 0.75729,1.06204z" data-paper-data="{&quot;index&quot;:null}" fill="url(#color-18)" stroke="none" stroke-width="0"/><text transform="translate(23.02778,121.99509) scale(0.19069,0.19069)" font-size="40" xml:space="preserve" fill="#ffffff" fill-rule="nonzero" stroke="none" stroke-width="1" stroke-linecap="butt" stroke-linejoin="miter" stroke-miterlimit="10" stroke-dasharray="" stroke-dashoffset="0" font-family="Malgun Gothic" font-weight="normal" text-anchor="start" style="mix-blend-mode: normal"><tspan x="0" dy="0">other</tspan></text><path d="M4.27778,132.20687c0,-2.54665 2.06446,-4.61111 4.61111,-4.61111c2.54665,0 4.61111,2.06446 4.61111,4.61111c0,2.54665 -2.06446,4.61111 -4.61111,4.61111c-2.54665,0 -4.61111,-2.06446 -4.61111,-4.61111zM6.61111,131.95687l4.59485,-0.07192l-0.01151,-1.73363l-4.61111,0.11111z" fill="url(#color-19)" stroke="none" stroke-width="0"/><text transform="translate(15.69444,135.21732) scale(0.19069,0.19069)" font-size="40" xml:space="preserve" fill="#ffffff" fill-rule="nonzero" stroke="none" stroke-width="1" stroke-linecap="butt" stroke-linejoin="miter" stroke-miterlimit="10" stroke-dasharray="" stroke-dashoffset="0" font-family="Malgun Gothic" font-weight="normal" text-anchor="start" style="mix-blend-mode: normal"><tspan x="0" dy="0">Keep</tspan></text><path d="M38.70578,135.33841c-0.88425,-0.64309 -2.58298,-1.87854 -3.05968,-2.22523c-0.2442,-0.17759 -0.27868,-0.519 -0.0591,-0.66872c0.49153,-0.33514 2.44195,-1.66496 3.27843,-2.23529c0.23671,-0.1614 0.38422,-0.01814 0.38422,0.23582c0,0.64594 0,3.50432 0,4.72895c0,0.34474 -0.21592,0.40298 -0.54387,0.16448z" data-paper-data="{&quot;index&quot;:null}" fill="#ffffff" stroke="none" stroke-width="0"/><text transform="translate(97.1,83.08465) scale(0.23998,0.23998)" font-size="40" xml:space="preserve" fill="#ffffff" fill-rule="nonzero" stroke="none" stroke-width="1" stroke-linecap="butt" stroke-linejoin="miter" stroke-miterlimit="10" stroke-dasharray="" stroke-dashoffset="0" font-family="Malgun Gothic" font-weight="normal" text-anchor="start" style="mix-blend-mode: normal"><tspan x="0" dy="0">1</tspan></text><text transform="translate(97.3,95.88465) scale(0.23998,0.23998)" font-size="40" xml:space="preserve" fill="#a2b1ca" fill-rule="nonzero" stroke="none" stroke-width="1" stroke-linecap="butt" stroke-linejoin="miter" stroke-miterlimit="10" stroke-dasharray="" stroke-dashoffset="0" font-family="Malgun Gothic" font-weight="normal" text-anchor="start" style="mix-blend-mode: normal"><tspan x="0" dy="0">2</tspan></text><text transform="translate(97.3,108.68465) scale(0.23998,0.23998)" font-size="40" xml:space="preserve" fill="#ffffff" fill-rule="nonzero" stroke="none" stroke-width="1" stroke-linecap="butt" stroke-linejoin="miter" stroke-miterlimit="10" stroke-dasharray="" stroke-dashoffset="0" font-family="Malgun Gothic" font-weight="normal" text-anchor="start" style="mix-blend-mode: normal"><tspan x="0" dy="0">3</tspan></text><text transform="translate(110,95.88677) scale(0.25121,0.25121)" font-size="40" xml:space="preserve" fill="#a2b1ca" fill-rule="nonzero" stroke="none" stroke-width="1" stroke-linecap="butt" stroke-linejoin="miter" stroke-miterlimit="10" stroke-dasharray="" stroke-dashoffset="0" font-family="Malgun Gothic" font-weight="normal" text-anchor="start" style="mix-blend-mode: normal"><tspan x="0" dy="0">//comment</tspan></text></g></g></svg>