<svg viewBox="0,0,160,160" height="160" width="160" xmlns:xlink="http://www.w3.org/1999/xlink" xmlns="http://www.w3.org/2000/svg" version="1.1"><title>Crisp Favicon</title><desc></desc><defs><linearGradient id="color-1" gradientUnits="userSpaceOnUse" y2="260" x2="240" y1="100" x1="240"><stop stop-color="#ffa217" offset="0"></stop><stop stop-color="#f25050" offset="1"></stop></linearGradient></defs><g transform="translate(-160,-100)"><g style="mix-blend-mode: normal" stroke-dashoffset="0" stroke-dasharray="" stroke-miterlimit="10" stroke-linejoin="miter" stroke-linecap="butt" stroke-width="0" stroke="none" fill-rule="nonzero" data-paper-data="{&quot;isPaintingLayer&quot;:true}"><path fill="url(#color-1)" d="M240,100c44.16,0 80,35.76 80,80c0,44.16 -35.76,80 -80,80c-44.16,0 -80,-35.76 -80,-80c0,-44.16 35.76,-80 80,-80z"></path><path fill="#ffffff" d="M205.08157,203.02717c0,-25.94239 21.03046,-46.97285 46.97285,-46.97285c3.53674,0 6.98219,0.39088 10.2955,1.13178c1.78771,0.39976 4.09173,3.86582 3.64773,5.11706c-1.00077,2.82025 -1.54551,5.85638 -1.54551,9.01976c0,14.89225 12.07256,26.9648 26.9648,26.9648c2.51689,0 7.83502,-0.1212 7.61031,6.7618c-0.84648,25.92856 -21.03046,44.95049 -46.97285,44.95049c-25.94239,0 -46.97285,-21.03046 -46.97285,-46.97285zM234.94872,193.12727c4.96409,0 8.98827,-4.02417 8.98827,-8.98827c0,-4.96409 -4.02417,-8.98827 -8.98827,-8.98827c-4.96409,0 -8.98827,4.02417 -8.98827,8.98827c0,4.96409 4.02417,8.98827 8.98827,8.98827zM235.81769,230.49276c4.96409,0 8.98827,-4.02417 8.98827,-8.98827c0,-4.96409 -4.02417,-8.98827 -8.98827,-8.98827c-4.96409,0 -8.98827,4.02417 -8.98827,8.98827c0,4.96409 4.02417,8.98827 8.98827,8.98827zM269.8811,229.97139c4.96409,0 8.98827,-4.02417 8.98827,-8.98827c0,-4.96409 -4.02417,-8.98827 -8.98827,-8.98827c-4.96409,0 -8.98827,4.02417 -8.98827,8.98827c0,4.96409 4.02417,8.98827 8.98827,8.98827z"></path><path fill="#ffffff" d="M289.74821,147.25215c6.84895,13.24871 -11.63143,36.41255 -41.27705,51.73789c-29.64564,15.32534 -59.23031,17.0088 -66.07922,3.7601c-4.43988,-8.58859 1.76461,-21.34392 14.75483,-33.42947c0.92892,-0.86422 2.59261,-3.79609 2.11237,-5.76283c-1.83344,-7.50851 -6.34059,-25.96656 -7.21335,-29.54077c-0.28707,-1.17559 -0.16087,-3.87934 0.79922,-6.21927c1.82491,-4.44763 5.73858,-11.36509 13.08832,-14.0727c7.63875,-2.81406 24.45468,-3.54093 31.43587,-3.7242c1.95087,-0.05122 4.37833,2.08157 6.22445,5.20307c3.51713,5.94687 9.21759,15.45049 12.65485,20.47847c1.43571,2.10014 5.60656,3.00289 6.96317,2.88326c12.96038,-1.14288 22.91936,1.68922 26.5366,8.68642zM225.83257,156.0911c-23.02911,13.33837 -37.10977,31.72382 -32.6355,40.2361c4.76267,9.06102 45.36907,-2.04052 52.60716,-5.59716c7.27293,-3.57374 36.14017,-30.34009 30.13178,-39.05055c-5.45147,-7.90311 -39.41161,-5.08779 -50.10344,4.4116z"></path></g></g></svg>